<svg id="visual" viewBox="0 0 900 600" width="900" height="600" xmlns="http://www.w3.org/2000/svg" xmlns:xlink="http://www.w3.org/1999/xlink" version="1.1"><rect x="0" y="0" width="900" height="600" fill="#dac2f7"></rect><path d="M0 244L16.7 249.7C33.3 255.3 66.7 266.7 100 265.8C133.3 265 166.7 252 200 254C233.3 256 266.7 273 300 274.2C333.3 275.3 366.7 260.7 400 256.8C433.3 253 466.7 260 500 261.2C533.3 262.3 566.7 257.7 600 251.5C633.3 245.3 666.7 237.7 700 236.5C733.3 235.3 766.7 240.7 800 242.8C833.3 245 866.7 244 883.3 243.5L900 243L900 601L883.3 601C866.7 601 833.3 601 800 601C766.7 601 733.3 601 700 601C666.7 601 633.3 601 600 601C566.7 601 533.3 601 500 601C466.7 601 433.3 601 400 601C366.7 601 333.3 601 300 601C266.7 601 233.3 601 200 601C166.7 601 133.3 601 100 601C66.7 601 33.3 601 16.7 601L0 601Z" fill="#715df2"></path><path d="M0 297L16.7 292.2C33.3 287.3 66.7 277.7 100 278C133.3 278.3 166.7 288.7 200 293.7C233.3 298.7 266.7 298.3 300 295.3C333.3 292.3 366.7 286.7 400 287C433.3 287.3 466.7 293.7 500 296.8C533.3 300 566.7 300 600 296.7C633.3 293.3 666.7 286.7 700 291.2C733.3 295.7 766.7 311.3 800 315.3C833.3 319.3 866.7 311.7 883.3 307.8L900 304L900 601L883.3 601C866.7 601 833.3 601 800 601C766.7 601 733.3 601 700 601C666.7 601 633.3 601 600 601C566.7 601 533.3 601 500 601C466.7 601 433.3 601 400 601C366.7 601 333.3 601 300 601C266.7 601 233.3 601 200 601C166.7 601 133.3 601 100 601C66.7 601 33.3 601 16.7 601L0 601Z" fill="#8742be"></path><path d="M0 336L16.7 338.5C33.3 341 66.7 346 100 348.3C133.3 350.7 166.7 350.3 200 345.3C233.3 340.3 266.7 330.7 300 329.7C333.3 328.7 366.7 336.3 400 342.2C433.3 348 466.7 352 500 351.5C533.3 351 566.7 346 600 348.7C633.3 351.3 666.7 361.7 700 360.3C733.3 359 766.7 346 800 337.2C833.3 328.3 866.7 323.7 883.3 321.3L900 319L900 601L883.3 601C866.7 601 833.3 601 800 601C766.7 601 733.3 601 700 601C666.7 601 633.3 601 600 601C566.7 601 533.3 601 500 601C466.7 601 433.3 601 400 601C366.7 601 333.3 601 300 601C266.7 601 233.3 601 200 601C166.7 601 133.3 601 100 601C66.7 601 33.3 601 16.7 601L0 601Z" fill="#852d8e"></path><path d="M0 387L16.7 382.2C33.3 377.3 66.7 367.7 100 372.5C133.3 377.3 166.7 396.7 200 400.7C233.3 404.7 266.7 393.3 300 383.5C333.3 373.7 366.7 365.3 400 368.3C433.3 371.3 466.7 385.7 500 385.3C533.3 385 566.7 370 600 368.5C633.3 367 666.7 379 700 385.8C733.3 392.7 766.7 394.3 800 393.2C833.3 392 866.7 388 883.3 386L900 384L900 601L883.3 601C866.7 601 833.3 601 800 601C766.7 601 733.3 601 700 601C666.7 601 633.3 601 600 601C566.7 601 533.3 601 500 601C466.7 601 433.3 601 400 601C366.7 601 333.3 601 300 601C266.7 601 233.3 601 200 601C166.7 601 133.3 601 100 601C66.7 601 33.3 601 16.7 601L0 601Z" fill="#771e64"></path><path d="M0 457L16.7 447.7C33.3 438.3 66.7 419.7 100 418.3C133.3 417 166.7 433 200 434.3C233.3 435.7 266.7 422.3 300 422C333.3 421.7 366.7 434.3 400 440.2C433.3 446 466.7 445 500 442.5C533.3 440 566.7 436 600 431.3C633.3 426.7 666.7 421.3 700 424.3C733.3 427.3 766.7 438.7 800 436.8C833.3 435 866.7 420 883.3 412.5L900 405L900 601L883.3 601C866.7 601 833.3 601 800 601C766.7 601 733.3 601 700 601C666.7 601 633.3 601 600 601C566.7 601 533.3 601 500 601C466.7 601 433.3 601 400 601C366.7 601 333.3 601 300 601C266.7 601 233.3 601 200 601C166.7 601 133.3 601 100 601C66.7 601 33.3 601 16.7 601L0 601Z" fill="#601742"></path><path d="M0 474L16.7 475.8C33.3 477.7 66.7 481.3 100 476.3C133.3 471.3 166.7 457.7 200 459.3C233.3 461 266.7 478 300 478.7C333.3 479.3 366.7 463.7 400 461.5C433.3 459.3 466.7 470.7 500 471.3C533.3 472 566.7 462 600 457.3C633.3 452.7 666.7 453.3 700 456C733.3 458.7 766.7 463.3 800 463.5C833.3 463.7 866.7 459.3 883.3 457.2L900 455L900 601L883.3 601C866.7 601 833.3 601 800 601C766.7 601 733.3 601 700 601C666.7 601 633.3 601 600 601C566.7 601 533.3 601 500 601C466.7 601 433.3 601 400 601C366.7 601 333.3 601 300 601C266.7 601 233.3 601 200 601C166.7 601 133.3 601 100 601C66.7 601 33.3 601 16.7 601L0 601Z" fill="#451528"></path><path d="M0 503L16.7 502.7C33.3 502.3 66.7 501.7 100 505.8C133.3 510 166.7 519 200 519.7C233.3 520.3 266.7 512.7 300 507.2C333.3 501.7 366.7 498.3 400 500.3C433.3 502.3 466.7 509.7 500 515.5C533.3 521.3 566.7 525.7 600 524C633.3 522.3 666.7 514.7 700 512.3C733.3 510 766.7 513 800 514.2C833.3 515.3 866.7 514.7 883.3 514.3L900 514L900 601L883.3 601C866.7 601 833.3 601 800 601C766.7 601 733.3 601 700 601C666.7 601 633.3 601 600 601C566.7 601 533.3 601 500 601C466.7 601 433.3 601 400 601C366.7 601 333.3 601 300 601C266.7 601 233.3 601 200 601C166.7 601 133.3 601 100 601C66.7 601 33.3 601 16.7 601L0 601Z" fill="#291116"></path><path d="M0 562L16.7 559.7C33.3 557.3 66.7 552.7 100 553.2C133.3 553.7 166.7 559.3 200 562.2C233.3 565 266.7 565 300 559.2C333.3 553.3 366.7 541.7 400 536.3C433.3 531 466.7 532 500 539.5C533.3 547 566.7 561 600 563.5C633.3 566 666.7 557 700 556.8C733.3 556.7 766.7 565.3 800 562.8C833.3 560.3 866.7 546.7 883.3 539.8L900 533L900 601L883.3 601C866.7 601 833.3 601 800 601C766.7 601 733.3 601 700 601C666.7 601 633.3 601 600 601C566.7 601 533.3 601 500 601C466.7 601 433.3 601 400 601C366.7 601 333.3 601 300 601C266.7 601 233.3 601 200 601C166.7 601 133.3 601 100 601C66.7 601 33.3 601 16.7 601L0 601Z" fill="#090505"></path></svg>